<?xml version="1.0" encoding="UTF-8"?>
<svg xmlns="http://www.w3.org/2000/svg" xmlns:xlink="http://www.w3.org/1999/xlink" width="30px" height="30px" viewBox="0 0 30 30" version="1.1">
<g id="surface1">
<path style=" stroke:none;fill-rule:nonzero;fill:rgb(255%,255%,255%);fill-opacity:1;" d="M 13.945312 0.0351562 C 13.835938 0.046875 13.488281 0.0859375 13.183594 0.117188 C 11.25 0.328125 9.109375 1.054688 7.382812 2.085938 C 5.1875 3.398438 3.398438 5.1875 2.085938 7.382812 C 1.0625 9.09375 0.382812 11.085938 0.105469 13.183594 C 0.0117188 13.90625 0.0117188 16.09375 0.105469 16.816406 C 0.585938 20.46875 2.191406 23.554688 4.910156 26.078125 C 6.410156 27.480469 8.28125 28.570312 10.3125 29.238281 C 11.917969 29.773438 13.1875 29.964844 15 29.964844 C 16.335938 29.964844 16.929688 29.914062 18.105469 29.671875 C 22.140625 28.84375 25.746094 26.257812 27.914062 22.617188 C 28.9375 20.90625 29.617188 18.914062 29.894531 16.816406 C 29.988281 16.09375 29.988281 13.90625 29.894531 13.183594 C 29.617188 11.085938 28.9375 9.09375 27.914062 7.382812 C 26.601562 5.1875 24.8125 3.398438 22.617188 2.085938 C 20.921875 1.070312 18.902344 0.382812 16.875 0.117188 C 16.359375 0.046875 14.308594 -0.0078125 13.945312 0.0351562 Z M 16.203125 1.816406 C 19.617188 2.132812 22.914062 3.851562 25.089844 6.445312 C 27.945312 9.851562 28.910156 14.28125 27.738281 18.554688 C 27.289062 20.203125 26.492188 21.78125 25.40625 23.15625 C 25.207031 23.40625 25.039062 23.613281 25.019531 23.613281 C 25 23.613281 24.90625 23.359375 24.8125 23.050781 C 24.316406 21.386719 23.15625 19.601562 21.8125 18.421875 C 20.96875 17.683594 19.816406 16.976562 18.78125 16.554688 L 18.546875 16.460938 L 18.75 16.304688 C 19.117188 16.03125 20.015625 15.085938 20.234375 14.75 C 21.0625 13.453125 21.414062 12.054688 21.269531 10.625 C 21.054688 8.476562 19.796875 6.632812 17.898438 5.640625 C 13.953125 3.59375 9.179688 6.175781 8.730469 10.625 C 8.613281 11.777344 8.835938 12.992188 9.351562 14.015625 C 9.765625 14.84375 10.460938 15.695312 11.140625 16.210938 C 11.296875 16.328125 11.425781 16.445312 11.425781 16.464844 C 11.425781 16.484375 11.234375 16.570312 11 16.664062 C 9.414062 17.304688 7.835938 18.546875 6.726562 20.007812 C 6.085938 20.859375 5.476562 22.054688 5.179688 23.054688 C 5.09375 23.359375 5 23.613281 4.980469 23.613281 C 4.933594 23.613281 4.265625 22.746094 3.929688 22.25 C 3.5625 21.695312 2.914062 20.429688 2.648438 19.757812 C 2.191406 18.597656 1.90625 17.257812 1.804688 15.804688 C 1.5 11.601562 3.390625 7.335938 6.71875 4.679688 C 9.410156 2.539062 12.820312 1.507812 16.203125 1.816406 Z M 16.230469 6.855469 C 17.734375 7.28125 18.914062 8.460938 19.371094 9.992188 C 19.578125 10.6875 19.585938 11.683594 19.40625 12.367188 C 18.859375 14.402344 17.09375 15.761719 15 15.761719 C 12.90625 15.761719 11.140625 14.402344 10.59375 12.367188 C 10.414062 11.683594 10.421875 10.6875 10.628906 9.992188 C 11.144531 8.257812 12.480469 7.078125 14.355469 6.714844 C 14.695312 6.648438 15.804688 6.734375 16.230469 6.855469 Z M 16.203125 17.703125 C 18.015625 17.9375 19.625 18.742188 21.011719 20.125 C 22.054688 21.171875 22.710938 22.226562 23.132812 23.554688 C 23.285156 24.03125 23.523438 25.140625 23.476562 25.164062 C 23.472656 25.171875 23.296875 25.304688 23.085938 25.46875 C 21.28125 26.875 19.109375 27.78125 16.671875 28.132812 C 15.992188 28.230469 14.007812 28.230469 13.328125 28.132812 C 10.890625 27.78125 8.71875 26.875 6.914062 25.46875 C 6.703125 25.304688 6.527344 25.171875 6.523438 25.164062 C 6.507812 25.160156 6.546875 24.9375 6.59375 24.671875 C 7.125 21.644531 9.292969 19.109375 12.222656 18.085938 C 13.515625 17.636719 14.75 17.515625 16.203125 17.703125 Z M 16.203125 17.703125 "/>
</g>
</svg>
